<!-- Faithful trace candidate from the Principal-approved 2026-09-02 Agnir reference. Not a locked master until QA/handoff promotion. -->
<svg xmlns="http://www.w3.org/2000/svg" viewBox="0 0 230 88" role="img" aria-label="Agnir wordmark trace candidate"><path d="M 181 22 L 181 66 L 191 66 L 192 23 Z M 229 22 L 221 22 L 214 27 L 213 22 L 202 23 L 203 66 L 214 65 L 214 38 L 220 32 L 229 31 Z M 163 24 L 150 21 L 143 23 L 138 27 L 137 22 L 127 22 L 127 66 L 138 65 L 138 38 L 145 31 L 153 31 L 158 37 L 158 66 L 169 66 L 169 34 Z M 115 22 L 105 22 L 104 27 L 99 23 L 87 21 L 78 24 L 71 31 L 68 40 L 68 49 L 72 58 L 76 62 L 90 67 L 105 61 L 104 70 L 97 77 L 85 77 L 79 70 L 70 74 L 72 79 L 78 84 L 95 87 L 107 83 L 112 78 L 115 71 Z M 88 31 L 96 31 L 104 39 L 103 50 L 93 57 L 85 55 L 79 46 L 80 38 Z M 184 0 L 180 3 L 180 10 L 184 13 L 189 13 L 193 10 L 193 3 L 189 0 Z M 27 0 L 0 66 L 12 66 L 18 52 L 45 51 L 52 66 L 64 66 L 38 0 Z M 32 16 L 40 34 L 41 41 L 22 40 Z" fill="#111111" fill-rule="evenodd"/></svg>
